<?xml version="1.0" encoding="UTF-8"?>
<svg id="Layer_1" xmlns="http://www.w3.org/2000/svg" version="1.1" xmlns:xodm="http://www.corel.com/coreldraw/odm/2003" viewBox="0 0 595.28 841.89">
  <!-- Generator: Adobe Illustrator 29.5.1, SVG Export Plug-In . SVG Version: 2.1.0 Build 141)  -->
  <defs>
    <style>
      .st0 {
        fill: #cccbca;
      }

      .st0, .st1, .st2, .st3, .st4 {
        stroke: #000;
        stroke-miterlimit: 10;
        stroke-width: .57px;
      }

      .st0, .st5, .st2, .st3, .st4, .st6 {
        fill-rule: evenodd;
      }

      .st1 {
        fill: none;
      }

      .st5, .st7 {
        fill: #fefefe;
      }

      .st2 {
        fill: #183860;
      }

      .st3 {
        fill: #ed5815;
      }

      .st4, .st6 {
        fill: #295893;
      }
    </style>
  </defs>
  <path class="st6" d="M72.57,608.66c26.98-244.49,212.58-344.11,417.59-421.61C350.22,238.63,153.87,286.47,10.42,482.44c11.02,59.43,36.78,95.28,62.18,126.22h-.02Z"/>
  <polygon class="st5" points="31.97 550.19 27.13 537.78 43.68 508.66 49.95 510.07 31.97 550.19"/>
  <path class="st0" d="M243.09,733.91c-136.78-254.78,3.24-427.27,255.44-543.96C218.14,297.93,98.85,432.48,84.69,622.99c47.29,47.9,101.1,83,158.41,110.9h0v.02Z"/>
  <path class="st4" d="M424.12,630.31c-167.77-109.61-189.96-259.94,74.17-432.53-356.61,174.17-320.83,370.18-225.13,534.99,61.06-26.88,106.42-58.11,150.96-102.46h0Z"/>
  <path class="st2" d="M483.6,182.58C293.03,235.29,122.46,312.58,9.04,458.38c-.97-81.85-2.16-166.43-3.5-294.48,7.81-27.15,308.18-70.49,455.59-23.23l-77.87,23.6,100.34,18.32h0Z"/>
  <path class="st0" d="M320.86,416.86c22.7-110.12,133.55-174.46,191.54-218.98.58,119.39,22.99,302.17-78.96,421.68-74.07-40.14-127.46-130.58-112.58-202.7h0Z"/>
  <polygon class="st3" points="524.85 274.17 591.48 118.92 431.62 162.29 525.51 177.62 524.85 274.17"/>
  <polygon class="st5" points="107.92 418.42 103.83 415.55 121.39 394.31 125.55 397.06 107.92 418.42"/>
  <polygon class="st5" points="67.17 475.31 62.87 472.32 79.77 445.71 84.69 449.26 67.17 475.31"/>
  <polygon class="st5" points="151.73 373.05 148.15 369.57 166.62 351.33 169.97 354.76 151.73 373.05"/>
  <polygon class="st5" points="197.44 334.25 194.61 330.58 214.46 315.74 216.75 319.68 197.44 334.25"/>
  <polygon class="st5" points="169.15 456.19 165.03 453.35 177.12 430.19 181.28 431.67 169.15 456.19"/>
  <polygon class="st5" points="150.78 521.19 142.73 519.95 150.73 487.21 157.66 488.37 150.78 521.19"/>
  <polygon class="st5" points="198.53 405.09 194.42 402.21 212.01 381 216.17 383.73 198.53 405.09"/>
  <polygon class="st5" points="233.85 363.59 230.1 360.28 249.95 341.16 253.8 344.34 233.85 363.59"/>
  <polygon class="st5" points="140.22 602.14 132.17 600.9 135.55 559.75 143.77 559.99 140.22 602.14"/>
  <polygon class="st5" points="145.28 673.76 133.56 664.71 134.9 646.1 142.97 646.37 145.28 673.76"/>
  <polygon class="st5" points="271.26 540.09 262.65 540.77 256.45 505.55 263.8 504.7 271.26 540.09"/>
  <path class="st5" d="M263.8,473.88l-8.39-.41c-.46-9.51,1.41-19.65,4.16-28.19l6.49.51c-1.78,9.05-2.7,19.05-2.26,28.1h0Z"/>
  <path class="st5" d="M275.15,417.32l-7.22-.34c2.29-10.56,6.4-15.96,8.98-22.21l5.33.63c-1.78,9.05-5.33,10.87-7.08,21.92h0Z"/>
  <polygon class="st5" points="296 370.64 290.84 368.31 303.69 349.4 308.58 352.45 296 370.64"/>
  <polygon class="st5" points="326.17 332.5 321.71 328.56 335.75 312.58 339.64 315.71 326.17 332.5"/>
  <polygon class="st5" points="244.12 300.66 241.32 296.98 262.55 285.5 264.84 289 244.12 300.66"/>
  <polygon class="st5" points="276.37 322.79 273.16 319.46 292.64 302.94 295.1 306.62 276.37 322.79"/>
  <polygon class="st5" points="300.99 608.88 291.4 612.53 273.53 574.88 281.09 572.42 300.99 608.88"/>
  <polygon class="st5" points="357.69 686.12 348.71 691.86 314.71 650.09 324.46 646.1 357.69 686.12"/>
  <ellipse class="st7" cx="350.59" cy="453.42" rx="9.85" ry="9.68"/>
  <ellipse class="st7" cx="375.55" cy="371.42" rx="9.85" ry="9.68"/>
  <ellipse class="st7" cx="121.47" cy="320.17" rx="9.85" ry="9.68"/>
  <ellipse class="st7" cx="258.37" cy="239.5" rx="9.85" ry="9.68"/>
  <rect class="st7" x="167.1" y="249.06" width="52.81" height="5.98"/>
  <rect class="st7" x="193.93" y="235.98" width="43.59" height="5.98"/>
  <rect class="st7" x="57.2" y="317.78" width="44.1" height="5.13"/>
  <rect class="st7" x="31.22" y="329.58" width="52.3" height="6.84"/>
  <rect class="st7" x="394.76" y="367.5" width="47.17" height="7.01"/>
  <rect class="st7" x="413.4" y="378.79" width="54.17" height="8.03"/>
  <ellipse class="st7" cx="458.01" cy="266.5" rx="4.69" ry="4.45"/>
  <ellipse class="st7" cx="472.36" cy="254.03" rx="4.69" ry="4.45"/>
  <ellipse class="st7" cx="475.28" cy="276.57" rx="4.69" ry="4.45"/>
  <ellipse class="st7" cx="490.65" cy="263.41" rx="4.69" ry="4.45"/>
  <ellipse class="st7" cx="390.02" cy="196.42" rx="4.69" ry="4.45"/>
  <ellipse class="st7" cx="356.72" cy="196.93" rx="4.69" ry="4.45"/>
  <ellipse class="st7" cx="372.99" cy="185.33" rx="4.69" ry="4.45"/>
  <ellipse class="st7" cx="341.08" cy="183.94" rx="4.69" ry="4.45"/>
  <ellipse class="st7" cx="324.54" cy="196.69" rx="4.69" ry="4.45"/>
  <rect class="st7" x="368.9" y="449.38" width="46.66" height="7.25"/>
  <rect class="st7" x="390.85" y="461.13" width="50.82" height="7.95"/>
  <path class="st1" d="M483.6,182.58l-102.68-17.71,77.6-23.55c-130.68-48.24-453.25-1.39-452.96,22.55l3.53,296.04c1.05,87.18,70.52,199.76,248.02,280.79,167.82-71.95,235.35-164.54,254.03-325.91,8.2-70.86,3.33-139.12,1.26-216.93"/>
</svg>